Coordinates
version=1
nRows=16
nColumns=36
inDegrees=yes

Units are S.I. units (second, meters, Newtons, ...)
If the header above contains a line with 'inDegrees', this indicates whether rotational values are in degrees (yes) or radians (no).

endheader
time	pelvis_tilt	pelvis_list	pelvis_rotation	pelvis_tx	pelvis_ty	pelvis_tz	hip_flexion_r	hip_adduction_r	hip_rotation_r	knee_angle_r	knee_angle_r_beta	ankle_angle_r	subtalar_angle_r	mtp_angle_r	hip_flexion_l	hip_adduction_l	hip_rotation_l	knee_angle_l	knee_angle_l_beta	ankle_angle_l	subtalar_angle_l	mtp_angle_l	lumbar_extension	lumbar_bending	lumbar_rotation	arm_flex_r	arm_add_r	arm_rot_r	elbow_flex_r	pro_sup_r	arm_flex_l	arm_add_l	arm_rot_l	elbow_flex_l	pro_sup_l
      2.80000000	    -39.33036450	      0.75073383	     -4.89475333	      1.54709964	      0.64572296	      0.05123999	    103.51470026	    -13.96376110	     -0.33645209	     99.18686350	      1.73113734	     36.27894506	     -1.66836767	     -7.49999987	    105.00944598	    -12.24347180	      4.21197009	     97.59360589	      1.70332975	     33.20804788	     -7.76938286	     -7.49999987	    -24.61203617	     -3.56655924	      4.69364763	     80.49757214	    -32.65478664	     55.12482038	    136.08606607	     61.78140015	     99.84537188	    -31.03972926	     70.24517156	    127.61061324	     65.91943373
      2.81666670	    -40.15290415	      0.96720102	     -4.56373863	      1.53808409	      0.63969581	      0.04991595	    105.56501145	    -14.23139514	      0.19258976	    100.27957075	      1.75020868	     36.09622928	     -1.77350538	     -7.49999987	    106.94674839	    -11.86652763	      4.20937245	     98.58380415	      1.72061197	     32.66387488	     -8.45429703	     -7.49999987	    -25.11665579	     -3.27704382	      5.48865318	     81.60688380	    -33.98784398	     56.67419711	    137.13864557	     61.61414552	     99.54062731	    -29.77225116	     69.27053270	    127.77337970	     66.40458112
      2.83333330	    -40.52258783	      1.04422895	     -4.29228435	      1.53247898	      0.63037691	      0.05317206	    107.05074043	    -14.47372026	      0.49104708	    101.25524305	      1.76723738	     36.01880902	     -1.70513045	     -7.49999987	    108.39750683	    -11.58080530	      4.30580684	     99.50424762	      1.73667674	     32.26909413	     -8.81517371	     -7.49999987	    -25.62743653	     -3.07588603	      5.50482329	     83.18472031	    -33.68152123	     56.82648336	    137.24466490	     61.16884184	    100.20482006	    -29.67449014	     67.81624912	    128.21490305	     66.85806821
      2.85000000	    -41.04305115	      1.01633835	     -3.98232053	      1.52406629	      0.62808692	      0.05935548	    108.42972803	    -14.67575107	      0.54737247	    101.88138029	      1.77816553	     35.82551283	     -1.66861751	     -7.49999987	    109.87190512	    -11.40771804	      4.41484130	    100.07553861	      1.74664765	     32.00935626	     -8.82312175	     -7.49999987	    -26.06268228	     -2.85506409	      5.60967614	     84.82120610	    -33.87811944	     55.92070818	    136.35643223	     60.97785547	    101.19220248	    -29.78226926	     67.42655411	    128.02774924	     66.91577625
      2.86666670	    -41.26481694	      0.89777774	     -3.70208146	      1.51941944	      0.62320764	      0.06196115	    109.31395351	    -14.87927905	      0.44683596	    102.31821895	      1.78578981	     35.56282200	     -1.57748481	     -7.49999987	    110.91484113	    -11.27883882	      4.58756448	    100.42763757	      1.75279294	     31.45054581	     -9.12108475	     -7.49999987	    -26.92293824	     -2.26118392	      4.69312506	     87.10718082	    -32.22227139	     55.50958624	    134.44088812	     54.53124392	    102.61484265	    -32.25019325	     68.00534370	    128.09144896	     68.47703757
      2.88333330	    -41.67048648	      0.74137053	     -3.49670183	      1.51565656	      0.62376744	      0.06458784	    110.06384830	    -14.98521721	      0.19895530	    102.37213940	      1.78673089	     35.26353881	     -1.39220207	     -7.49999987	    111.85275775	    -11.24663648	      4.77170854	    100.43388416	      1.75290196	     31.08183117	     -9.05261753	     -7.49999987	    -27.41866557	     -2.05203287	      4.99144508	     88.07353445	    -32.39607009	     54.93157218	    134.35012901	     54.83714094	    103.19292050	    -32.34809704	     68.06054218	    127.96417735	     67.96452900
      2.90000000	    -41.76418532	      0.67856714	     -3.33427573	      1.51083792	      0.62085729	      0.05997007	    110.52671543	    -15.14197369	      0.02924191	    102.33112357	      1.78601503	     34.83989166	     -1.23800056	     -7.49999987	    112.37888694	    -11.20431996	      4.80781614	    100.40015062	      1.75231320	     30.56136842	     -9.10650773	     -7.49999987	    -27.99150858	     -1.81156974	      5.34531692	     89.95894652	    -33.74207816	     54.72102403	    135.58743047	     54.59953752	    104.43657229	    -31.03534025	     67.43687994	    128.14996599	     67.93544168
      2.91666670	    -42.07835539	      0.61340209	     -3.13642003	      1.50721625	      0.62119044	      0.06264337	    111.08603293	    -15.30883792	     -0.16394486	    102.15889342	      1.78300905	     34.34538352	     -1.04755827	     -7.49999987	    112.95991172	    -11.11891978	      4.81340551	    100.17161236	      1.74832445	     30.15385945	     -9.03168400	     -7.49999987	    -27.79186062	     -1.65773642	      5.52193976	     90.55610823	    -34.18483090	     54.38637131	    135.16347301	     54.92449386	    104.80596795	    -30.37972451	     67.15056154	    127.80769450	     67.28249096
      2.93333330	    -41.92698769	      0.50977338	     -3.05906828	      1.51170258	      0.62678805	      0.05934748	    110.76354740	    -15.44648543	     -0.47675837	    101.63520641	      1.77386899	     34.04273418	     -0.86650247	     -7.49999987	    112.70946630	    -10.98198039	      4.88758109	     99.71561246	      1.74036575	     29.84273786	     -9.09005549	     -7.49999987	    -28.39009529	     -1.50635533	      6.01489796	     91.15657736	    -35.60038226	     54.99036922	    136.31876968	     54.37845970	    105.46742005	    -29.30312506	     66.96151013	    127.32251240	     67.18880488
      2.95000000	    -41.93868151	      0.47472383	     -2.93695969	      1.51192906	      0.63131694	      0.05882096	    110.38355640	    -15.64849135	     -0.75148228	    100.86807886	      1.76048009	     33.58709733	     -0.71657018	     -7.49999987	    112.31281774	    -10.78658205	      4.82751402	     99.02128617	      1.72824747	     29.73959630	     -8.89448264	     -7.49999987	    -28.33960510	     -1.28551980	      6.29991845	     91.20121910	    -36.41057173	     55.57229194	    137.65453231	     54.39550935	    105.75186990	    -28.38563265	     66.35900567	    127.37010396	     66.62126680
      2.96666670	    -41.88548004	      0.44595689	     -2.80375890	      1.50728410	      0.63229584	      0.06019787	    109.89715074	    -15.80395994	     -0.98941395	    100.03767883	      1.74598687	     33.10050370	     -0.49991707	     -7.49999987	    111.80817510	    -10.55786601	      4.75796766	     98.26009760	      1.71496223	     29.58178012	     -8.76110154	     -7.49999987	    -27.68429266	     -1.22553554	      6.11189800	     92.06955634	    -35.96345493	     55.36675534	    138.81153172	     54.27219334	    106.81693798	    -27.93174470	     65.23616788	    128.13760777	     66.57621697
      2.98333330	    -41.56446162	      0.52097597	     -2.73313777	      1.51248326	      0.64095309	      0.05755244	    108.89543481	    -15.91343405	     -1.17057856	     98.96453625	      1.72725700	     32.68299871	     -0.35155110	     -7.49999987	    110.70325501	    -10.36008611	      4.57925991	     97.26103504	      1.69752530	     29.52610212	     -8.66785522	     -7.49999987	    -27.75842093	     -1.18078842	      6.06688922	     91.63979795	    -36.46823922	     55.70676086	    139.07763243	     54.21635734	    106.00556145	    -28.39375804	     65.00975612	    128.60851578	     66.60000513
      3.00000000	    -41.48239222	      0.37311976	     -2.68661130	      1.51273277	      0.65456171	      0.05718445	    107.66182736	    -16.00261852	     -1.66855422	     97.43899941	      1.70063136	     32.14522938	     -0.44055518	     -7.49999987	    109.61947648	    -10.08309999	      4.59903698	     95.93861052	      1.67444463	     29.41442613	     -8.63001855	     -7.49999987	    -27.64545620	     -0.53767086	      6.26055711	     91.33865942	    -36.59148712	     57.05210887	    137.39751355	     55.34495190	    103.74225651	    -28.04729170	     64.44285768	    127.66348455	     66.40512320
      3.01666670	    -41.18408247	      0.27742894	     -2.62258035	      1.51854267	      0.66639931	      0.06241169	    105.86914410	    -16.01644193	     -2.17287633	     95.63627267	      1.66916784	     31.71013914	     -0.22879794	     -7.49999987	    107.90538799	     -9.88892644	      4.52488736	     94.27178584	      1.64535305	     29.47734986	     -8.29926822	     -7.49999987	    -27.63848593	     -0.31447656	      6.43259380	     91.54732224	    -35.68514493	     57.30593886	    139.28287756	     55.00038420	    102.75157907	    -28.65741107	     63.47101915	    128.99937790	     66.79141437
      3.03333330	    -40.94114748	      0.29021562	     -2.56974644	      1.51277333	      0.67433533	      0.05649228	    104.20513728	    -16.04737075	     -2.61408394	     93.70508262	      1.63546222	     31.19799034	     -0.00306962	     -7.49999987	    106.26209317	     -9.71073908	      4.26136322	     92.53945458	      1.61511817	     29.24558051	     -8.11009576	     -7.49999987	    -27.11997553	     -0.03803178	      6.02496929	     90.62787629	    -36.28747590	     57.71931966	    139.12341431	     54.93993130	    102.20031930	    -28.33836513	     63.65172853	    129.61983749	     66.88620152
      3.05000000	    -40.37236767	      0.28800924	     -2.58428907	      1.52224983	      0.68684751	      0.05755895	    102.02737539	    -16.01848129	     -3.11351619	     91.69145202	      1.60031773	     30.67453083	      0.12757097	     -7.49999987	    104.08656610	     -9.53357716	      4.09883812	     90.68036649	      1.58267096	     29.06627028	     -8.00660338	     -7.49999987	    -26.67369709	      0.01135803	      5.99572572	     89.04384300	    -36.64519822	     58.17096836	    139.90447650	     54.93116533	    100.65851273	    -28.58724110	     64.04231904	    130.71022957	     67.00972665
